<svg xmlns="http://www.w3.org/2000/svg" style="display:none">
  <symbol id="half-shield" width="19" height="20" viewBox="0 0 19 20">
    <path d="M9.37111 0C9.5508 0 9.73049 0.0390625 9.89455 0.113281L17.2539 3.23438C18.1133 3.59766 18.7539 4.44531 18.75 5.46875C18.7305 9.34375 17.1367 16.4336 10.4063 19.6562C9.75392 19.9688 8.99611 19.9688 8.34377 19.6562C1.60939 16.4336 0.019549 9.34375 1.77675e-05 5.46875C-0.00388848 4.44531 0.636737 3.59766 1.49611 3.23438L8.85158 0.113281C9.01564 0.0390625 9.19142 0 9.37111 0ZM9.37111 2.60938V17.3789C14.7617 14.7695 16.211 8.98828 16.2461 5.52734L9.37111 2.61328V2.60938Z" fill="currentColor"/>
  </symbol>
  <symbol id="headset" width="18" height="20" viewBox="0 0 18 20">
    <path d="M8.75 2.5C5.66406 2.5 3.09766 4.73828 2.58984 7.68359C2.95313 7.56641 3.34375 7.5 3.75 7.5H4.375C5.41016 7.5 6.25 8.33984 6.25 9.375V13.125C6.25 14.1602 5.41016 15 4.375 15H3.75C1.67969 15 0 13.3203 0 11.25V8.75C0 3.91797 3.91797 0 8.75 0C13.582 0 17.5 3.91797 17.5 8.75V15.3164C17.5 17.9062 15.3984 20.0039 12.8086 20.0039L9.375 20H8.125C7.08984 20 6.25 19.1602 6.25 18.125C6.25 17.0898 7.08984 16.25 8.125 16.25H9.375C10.4102 16.25 11.25 17.0898 11.25 18.125H12.8125C14.3672 18.125 15.625 16.8672 15.625 15.3125V14.4961C15.0742 14.8164 14.4336 14.9961 13.75 14.9961H13.125C12.0898 14.9961 11.25 14.1562 11.25 13.1211V9.37109C11.25 8.33594 12.0898 7.49609 13.125 7.49609H13.75C14.1562 7.49609 14.543 7.55859 14.9102 7.67969C14.4023 4.73828 11.8398 2.49609 8.75 2.49609V2.5Z" fill="currentColor"/>
  </symbol>
  <symbol id="left-traingle-arrow" width="23" height="18" viewBox="0 0 23 18">
    <path d="M5.95544 8.20548C5.51599 8.64493 5.51599 9.35861 5.95544 9.79806L12.7054 16.5481C13.1449 16.9875 13.8586 16.9875 14.298 16.5481C14.7375 16.1086 14.7375 15.3949 14.298 14.9555L8.34255 9.00001L14.2945 3.04454C14.734 2.60509 14.734 1.89142 14.2945 1.45197C13.8551 1.01251 13.1414 1.01251 12.7019 1.45197L5.95193 8.20197L5.95544 8.20548Z" fill="currentColor"/>
  </symbol>
  <symbol id="return" width="20" height="20" viewBox="0 0 20 20">
    <path d="M10 2.5C7.78125 2.5 5.78516 3.46484 4.41016 5H6.25C6.94141 5 7.5 5.55859 7.5 6.25C7.5 6.94141 6.94141 7.5 6.25 7.5H1.25C0.558594 7.5 0 6.94141 0 6.25V1.25C0 0.558594 0.558594 0 1.25 0C1.94141 0 2.5 0.558594 2.5 1.25V3.38672C4.33203 1.3125 7.01172 0 10 0C15.5234 0 20 4.47656 20 10C20 15.5234 15.5234 20 10 20C6.60156 20 3.59766 18.3047 1.79297 15.7148C1.39844 15.1484 1.53516 14.3711 2.10156 13.9727C2.66797 13.5742 3.44531 13.7148 3.84375 14.2812C5.20312 16.2266 7.45312 17.4961 10 17.4961C14.1406 17.4961 17.5 14.1367 17.5 9.99609C17.5 5.85547 14.1406 2.5 10 2.5Z" fill="currentColor"/>
  </symbol>
  <symbol id="right-triangle-arrow" width="23" height="18" viewBox="0 0 23 18">
    <path d="M16.5621 8.20548C17.0016 8.64493 17.0016 9.35861 16.5621 9.79806L9.81212 16.5481C9.37267 16.9875 8.659 16.9875 8.21954 16.5481C7.78009 16.1086 7.78009 15.3949 8.21954 14.9555L14.175 9.00001L8.22306 3.04454C7.78361 2.60509 7.78361 1.89142 8.22306 1.45197C8.66251 1.01251 9.37618 1.01251 9.81564 1.45197L16.5656 8.20197L16.5621 8.20548Z" fill="currentColor"/>
  </symbol>
  <symbol id="truck"  viewBox="0 0 576 512">
   <path fill="currentColor" d="M0 96C0 60.7 28.7 32 64 32l288 0c35.3 0 64 28.7 64 64l0 32 50.7 0c17 0 33.3 6.7 45.3 18.7L557.3 192c12 12 18.7 28.3 18.7 45.3L576 384c0 35.3-28.7 64-64 64l-3.3 0c-10.4 36.9-44.4 64-84.7 64s-74.2-27.1-84.7-64l-102.6 0c-10.4 36.9-44.4 64-84.7 64s-74.2-27.1-84.7-64L64 448c-35.3 0-64-28.7-64-64L0 96zM512 288l0-50.7-45.3-45.3-50.7 0 0 96 96 0zM192 424a40 40 0 1 0 -80 0 40 40 0 1 0 80 0zm232 40a40 40 0 1 0 0-80 40 40 0 1 0 0 80z"></path>
  </symbol>
  <symbol id="faster-truck"  width="23" height="17" viewBox="0 0 23 17">
   <path d="M2.25 2.25C2.25 1.00898 3.25898 0 4.5 0H14.625C15.866 0 16.875 1.00898 16.875 2.25V3.375H18.6574C19.2551 3.375 19.8281 3.61055 20.25 4.03242L21.8426 5.625C22.2645 6.04688 22.5 6.61992 22.5 7.21758V12.375C22.5 13.616 21.491 14.625 20.25 14.625H20.134C19.7684 15.9223 18.573 16.875 17.1562 16.875C15.7395 16.875 14.5477 15.9223 14.1785 14.625H10.5715C10.2059 15.9223 9.01055 16.875 7.59375 16.875C6.17695 16.875 4.98516 15.9223 4.61602 14.625H4.5C3.25898 14.625 2.25 13.616 2.25 12.375V10.6875H0.84375C0.376172 10.6875 0 10.3113 0 9.84375C0 9.37617 0.376172 9 0.84375 9H4.78125C5.24883 9 5.625 8.62383 5.625 8.15625C5.625 7.68867 5.24883 7.3125 4.78125 7.3125H0.84375C0.376172 7.3125 0 6.93633 0 6.46875C0 6.00117 0.376172 5.625 0.84375 5.625H7.03125C7.49883 5.625 7.875 5.24883 7.875 4.78125C7.875 4.31367 7.49883 3.9375 7.03125 3.9375H0.84375C0.376172 3.9375 0 3.56133 0 3.09375C0 2.62617 0.376172 2.25 0.84375 2.25H2.25ZM20.25 9V7.21758L18.6574 5.625H16.875V9H20.25ZM9 13.7812C9 13.4083 8.85184 13.0506 8.58812 12.7869C8.3244 12.5232 7.96671 12.375 7.59375 12.375C7.22079 12.375 6.8631 12.5232 6.59938 12.7869C6.33566 13.0506 6.1875 13.4083 6.1875 13.7812C6.1875 14.1542 6.33566 14.5119 6.59938 14.7756C6.8631 15.0393 7.22079 15.1875 7.59375 15.1875C7.96671 15.1875 8.3244 15.0393 8.58812 14.7756C8.85184 14.5119 9 14.1542 9 13.7812ZM17.1562 15.1875C17.5292 15.1875 17.8869 15.0393 18.1506 14.7756C18.4143 14.5119 18.5625 14.1542 18.5625 13.7812C18.5625 13.4083 18.4143 13.0506 18.1506 12.7869C17.8869 12.5232 17.5292 12.375 17.1562 12.375C16.7833 12.375 16.4256 12.5232 16.1619 12.7869C15.8982 13.0506 15.75 13.4083 15.75 13.7812C15.75 14.1542 15.8982 14.5119 16.1619 14.7756C16.4256 15.0393 16.7833 15.1875 17.1562 15.1875Z" fill="CurrentColor"/>
  </symbol>
  <symbol id="star"  width="20" height="19" viewBox="0 0 20 19">
   <path d="M10.4265 0.460547C10.2824 0.179297 9.99059 0 9.67418 0C9.35778 0 9.06598 0.179297 8.92184 0.460547L6.33434 5.53008L0.712855 6.42305C0.399965 6.47227 0.139808 6.69375 0.0413708 6.99609C-0.0570667 7.29844 0.0237927 7.62891 0.245277 7.85391L4.26715 11.8793L3.38121 17.5008C3.332 17.8137 3.46207 18.1301 3.71871 18.3164C3.97535 18.5027 4.31285 18.5309 4.59762 18.3867L9.67418 15.8063L14.7472 18.3867C15.0285 18.5309 15.3695 18.5027 15.6261 18.3164C15.8828 18.1301 16.0129 17.8172 15.9636 17.5008L15.0742 11.8793L19.0961 7.85391C19.3211 7.62891 19.3984 7.29844 19.3 6.99609C19.2015 6.69375 18.9449 6.47227 18.6285 6.42305L13.0105 5.53008L10.4265 0.460547Z" fill="currentColor"/>
  </symbol>
    <symbol id="review-star"  viewBox="0 0 576 512">
    <path fill="currentColor" d="M309.5-18.9c-4.1-8-12.4-13.1-21.4-13.1s-17.3 5.1-21.4 13.1L193.1 125.3 33.2 150.7c-8.9 1.4-16.3 7.7-19.1 16.3s-.5 18 5.8 24.4l114.4 114.5-25.2 159.9c-1.4 8.9 2.3 17.9 9.6 23.2s16.9 6.1 25 2L288.1 417.6 432.4 491c8 4.1 17.7 3.3 25-2s11-14.2 9.6-23.2L441.7 305.9 556.1 191.4c6.4-6.4 8.6-15.8 5.8-24.4s-10.1-14.9-19.1-16.3L383 125.3 309.5-18.9z"></path>
  </symbol>
  <symbol id="eye" viewBox="0 0 576 512">
  <path fill="currentColor" d="M288 32c-80.8 0-145.5 36.8-192.6 80.6-46.8 43.5-78.1 95.4-93 131.1-3.3 7.9-3.3 16.7 0 24.6 14.9 35.7 46.2 87.7 93 131.1 47.1 43.7 111.8 80.6 192.6 80.6s145.5-36.8 192.6-80.6c46.8-43.5 78.1-95.4 93-131.1 3.3-7.9 3.3-16.7 0-24.6-14.9-35.7-46.2-87.7-93-131.1-47.1-43.7-111.8-80.6-192.6-80.6zM144 256a144 144 0 1 1 288 0 144 144 0 1 1 -288 0zm144-64c0 35.3-28.7 64-64 64-11.5 0-22.3-3-31.7-8.4-1 10.9-.1 22.1 2.9 33.2 13.7 51.2 66.4 81.6 117.6 67.9s81.6-66.4 67.9-117.6c-12.2-45.7-55.5-74.8-101.1-70.8 5.3 9.3 8.4 20.1 8.4 31.7z"></path>
  </symbol>
  <symbol id="prevent-eye" viewBox="0 0 576 512">
  <path fill="currentColor" d="M41-24.9c-9.4-9.4-24.6-9.4-33.9 0S-2.3-.3 7 9.1l528 528c9.4 9.4 24.6 9.4 33.9 0s9.4-24.6 0-33.9l-96.4-96.4c2.7-2.4 5.4-4.8 8-7.2 46.8-43.5 78.1-95.4 93-131.1 3.3-7.9 3.3-16.7 0-24.6-14.9-35.7-46.2-87.7-93-131.1-47.1-43.7-111.8-80.6-192.6-80.6-56.8 0-105.6 18.2-146 44.2L41-24.9zM204.5 138.7c23.5-16.8 52.4-26.7 83.5-26.7 79.5 0 144 64.5 144 144 0 31.1-9.9 59.9-26.7 83.5l-34.7-34.7c12.7-21.4 17-47.7 10.1-73.7-13.7-51.2-66.4-81.6-117.6-67.9-8.6 2.3-16.7 5.7-24 10l-34.7-34.7zM325.3 395.1c-11.9 3.2-24.4 4.9-37.3 4.9-79.5 0-144-64.5-144-144 0-12.9 1.7-25.4 4.9-37.3L69.4 139.2c-32.6 36.8-55 75.8-66.9 104.5-3.3 7.9-3.3 16.7 0 24.6 14.9 35.7 46.2 87.7 93 131.1 47.1 43.7 111.8 80.6 192.6 80.6 37.3 0 71.2-7.9 101.5-20.6l-64.2-64.2z"></path>
 </symbol>
 <symbol id="heart" viewBox="0 0 512 512">
  <path fill="currentColor" d="M378.9 80c-27.3 0-53 13.1-69 35.2l-34.4 47.6c-4.5 6.2-11.7 9.9-19.4 9.9s-14.9-3.7-19.4-9.9l-34.4-47.6c-16-22.1-41.7-35.2-69-35.2-47 0-85.1 38.1-85.1 85.1 0 49.9 32 98.4 68.1 142.3 41.1 50 91.4 94 125.9 120.3 3.2 2.4 7.9 4.2 14 4.2s10.8-1.8 14-4.2c34.5-26.3 84.8-70.4 125.9-120.3 36.2-43.9 68.1-92.4 68.1-142.3 0-47-38.1-85.1-85.1-85.1zM271 87.1c25-34.6 65.2-55.1 107.9-55.1 73.5 0 133.1 59.6 133.1 133.1 0 68.6-42.9 128.9-79.1 172.8-44.1 53.6-97.3 100.1-133.8 127.9-12.3 9.4-27.5 14.1-43.1 14.1s-30.8-4.7-43.1-14.1C176.4 438 123.2 391.5 79.1 338 42.9 294.1 0 233.7 0 165.1 0 91.6 59.6 32 133.1 32 175.8 32 216 52.5 241 87.1l15 20.7 15-20.7z"></path>
 </symbol>
 <symbol id="arrows-rotate" viewBox="0 0 512 512">
  <path fill="currentColor" d="M65.9 228.5c13.3-93 93.4-164.5 190.1-164.5 53 0 101 21.5 135.8 56.2 .2 .2 .4 .4 .6 .6l7.6 7.2-47.9 0c-17.7 0-32 14.3-32 32s14.3 32 32 32l128 0c17.7 0 32-14.3 32-32l0-128c0-17.7-14.3-32-32-32s-32 14.3-32 32l0 53.4-11.3-10.7C390.5 28.6 326.5 0 256 0 127 0 20.3 95.4 2.6 219.5 .1 237 12.2 253.2 29.7 255.7s33.7-9.7 36.2-27.1zm443.5 64c2.5-17.5-9.7-33.7-27.1-36.2s-33.7 9.7-36.2 27.1c-13.3 93-93.4 164.5-190.1 164.5-53 0-101-21.5-135.8-56.2-.2-.2-.4-.4-.6-.6l-7.6-7.2 47.9 0c17.7 0 32-14.3 32-32s-14.3-32-32-32L32 320c-8.5 0-16.7 3.4-22.7 9.5S-.1 343.7 0 352.3l1 127c.1 17.7 14.6 31.9 32.3 31.7S65.2 496.4 65 478.7l-.4-51.5 10.7 10.1c46.3 46.1 110.2 74.7 180.7 74.7 129 0 235.7-95.4 253.4-219.5z"></path>
</symbol>
<symbol id="circle-user" viewBox="0 0 512 512">
  <path fill="currentColor" d="M406.5 399.6C387.4 352.9 341.5 320 288 320l-64 0c-53.5 0-99.4 32.9-118.5 79.6-35.6-37.3-57.5-87.9-57.5-143.6 0-114.9 93.1-208 208-208s208 93.1 208 208c0 55.7-21.9 106.2-57.5 143.6zm-40.1 32.7C334.4 452.4 296.6 464 256 464s-78.4-11.6-110.5-31.7c7.3-36.7 39.7-64.3 78.5-64.3l64 0c38.8 0 71.2 27.6 78.5 64.3zM256 512a256 256 0 1 0 0-512 256 256 0 1 0 0 512zm0-272a40 40 0 1 1 0-80 40 40 0 1 1 0 80zm-88-40a88 88 0 1 0 176 0 88 88 0 1 0 -176 0z"></path>
</symbol>
<symbol id="right-from-bracket" viewBox="0 0 512 512">
  <path fill="currentColor" d="M505 273c9.4-9.4 9.4-24.6 0-33.9L361 95c-6.9-6.9-17.2-8.9-26.2-5.2S320 102.3 320 112l0 80-112 0c-26.5 0-48 21.5-48 48l0 32c0 26.5 21.5 48 48 48l112 0 0 80c0 9.7 5.8 18.5 14.8 22.2s19.3 1.7 26.2-5.2L505 273zM160 96c17.7 0 32-14.3 32-32s-14.3-32-32-32L96 32C43 32 0 75 0 128L0 384c0 53 43 96 96 96l64 0c17.7 0 32-14.3 32-32s-14.3-32-32-32l-64 0c-17.7 0-32-14.3-32-32l0-256c0-17.7 14.3-32 32-32l64 0z"></path>
</symbol>
<symbol id="user" viewBox="0 0 512 512">
<path fill="currentColor" d="M144 128a80 80 0 1 1 160 0 80 80 0 1 1 -160 0zm208 0a128 128 0 1 0 -256 0 128 128 0 1 0 256 0zM48 480c0-70.7 57.3-128 128-128l96 0c70.7 0 128 57.3 128 128l0 8c0 13.3 10.7 24 24 24s24-10.7 24-24l0-8c0-97.2-78.8-176-176-176l-96 0C78.8 304 0 382.8 0 480l0 8c0 13.3 10.7 24 24 24s24-10.7 24-24l0-8z"></path>
</symbol>
<symbol id="user-plus" viewBox="0 0 512 512">
<path fill="currentColor" d="M136 128a120 120 0 1 1 240 0 120 120 0 1 1 -240 0zM48 482.3C48 383.8 127.8 304 226.3 304l59.4 0c98.5 0 178.3 79.8 178.3 178.3 0 16.4-13.3 29.7-29.7 29.7L77.7 512C61.3 512 48 498.7 48 482.3zM544 96c13.3 0 24 10.7 24 24l0 48 48 0c13.3 0 24 10.7 24 24s-10.7 24-24 24l-48 0 0 48c0 13.3-10.7 24-24 24s-24-10.7-24-24l0-48-48 0c-13.3 0-24-10.7-24-24s10.7-24 24-24l48 0 0-48c0-13.3 10.7-24 24-24z"></path>
</symbol>
<symbol id="cart" viewBox="0 0 512 512">
<path fill="currentColor" d="M24-16C10.7-16 0-5.3 0 8S10.7 32 24 32l45.3 0c3.9 0 7.2 2.8 7.9 6.6l52.1 286.3c6.2 34.2 36 59.1 70.8 59.1L456 384c13.3 0 24-10.7 24-24s-10.7-24-24-24l-255.9 0c-11.6 0-21.5-8.3-23.6-19.7l-5.1-28.3 303.6 0c30.8 0 57.2-21.9 62.9-52.2L568.9 69.9C572.6 50.2 557.5 32 537.4 32l-412.7 0-.4-2c-4.8-26.6-28-46-55.1-46L24-16zM208 512a48 48 0 1 0 0-96 48 48 0 1 0 0 96zm224 0a48 48 0 1 0 0-96 48 48 0 1 0 0 96z"></path>
</symbol>
<symbol id="arrow-left" viewBox="0 0 512 512">
<path fill="currentColor" d="M9.4 233.4c-12.5 12.5-12.5 32.8 0 45.3l160 160c12.5 12.5 32.8 12.5 45.3 0s12.5-32.8 0-45.3L109.3 288 480 288c17.7 0 32-14.3 32-32s-14.3-32-32-32l-370.7 0 105.4-105.4c12.5-12.5 12.5-32.8 0-45.3s-32.8-12.5-45.3 0l-160 160z"></path>
</symbol>
<symbol  id="envelope" viewBox="0 0 512 512">
<path fill="currentColor" d="M61.4 64C27.5 64 0 91.5 0 125.4 0 126.3 0 127.1 .1 128L0 128 0 384c0 35.3 28.7 64 64 64l384 0c35.3 0 64-28.7 64-64l0-256-.1 0c0-.9 .1-1.7 .1-2.6 0-33.9-27.5-61.4-61.4-61.4L61.4 64zM464 192.3L464 384c0 8.8-7.2 16-16 16L64 400c-8.8 0-16-7.2-16-16l0-191.7 154.8 117.4c31.4 23.9 74.9 23.9 106.4 0L464 192.3zM48 125.4C48 118 54 112 61.4 112l389.2 0c7.4 0 13.4 6 13.4 13.4 0 4.2-2 8.2-5.3 10.7L280.2 271.5c-14.3 10.8-34.1 10.8-48.4 0L53.3 136.1c-3.3-2.5-5.3-6.5-5.3-10.7z"></path>
</symbol>
<symbol  id="phone" viewBox="0 0 512 512">
<path fill="currentColor" d="M160.2 25C152.3 6.1 131.7-3.9 112.1 1.4l-5.5 1.5c-64.6 17.6-119.8 80.2-103.7 156.4 37.1 175 174.8 312.7 349.8 349.8 76.3 16.2 138.8-39.1 156.4-103.7l1.5-5.5c5.4-19.7-4.7-40.3-23.5-48.1l-97.3-40.5c-16.5-6.9-35.6-2.1-47 11.8l-38.6 47.2C233.9 335.4 177.3 277 144.8 205.3L189 169.3c13.9-11.3 18.6-30.4 11.8-47L160.2 25z"></path>
</symbol>
<symbol  id="gift" viewBox="0 0 512 512">
<path fill="currentColor" d="M321.5 68.8C329.1 55.9 342.9 48 357.8 48l2.2 0c22.1 0 40 17.9 40 40s-17.9 40-40 40l-73.3 0 34.8-59.2zm-131 0l34.8 59.2-73.3 0c-22.1 0-40-17.9-40-40s17.9-40 40-40l2.2 0c14.9 0 28.8 7.9 36.3 20.8zm89.6-24.3l-24.1 41-24.1-41C215.7 16.9 186.1 0 154.2 0L152 0c-48.6 0-88 39.4-88 88 0 14.4 3.5 28 9.6 40L32 128c-17.7 0-32 14.3-32 32l0 32c0 17.7 14.3 32 32 32l448 0c17.7 0 32-14.3 32-32l0-32c0-17.7-14.3-32-32-32l-41.6 0c6.1-12 9.6-25.6 9.6-40 0-48.6-39.4-88-88-88l-2.2 0c-31.9 0-61.5 16.9-77.7 44.4zM480 272l-200 0 0 208 136 0c35.3 0 64-28.7 64-64l0-144zm-248 0l-200 0 0 144c0 35.3 28.7 64 64 64l136 0 0-208z"></path>
</symbol>
<symbol id="apple" viewBox="0 0 512 512">
<path fill="currentColor" d="M319.1 268.7c-.2-36.7 16.4-64.4 50-84.8-18.8-26.9-47.2-41.7-84.7-44.6-35.5-2.8-74.3 20.7-88.5 20.7-15 0-49.4-19.7-76.4-19.7-55.8 .9-115.1 44.5-115.1 133.2 0 26.2 4.8 53.3 14.4 81.2 12.8 36.7 59 126.7 107.2 125.2 25.2-.6 43-17.9 75.8-17.9 31.8 0 48.3 17.9 76.4 17.9 48.6-.7 90.4-82.5 102.6-119.3-65.2-30.7-61.7-90-61.7-91.9zM262.5 104.5c27.3-32.4 24.8-61.9 24-72.5-24.1 1.4-52 16.4-67.9 34.9-17.5 19.8-27.8 44.3-25.6 71.9 26.1 2 49.9-11.4 69.5-34.3z"></path>
</symbol>
<symbol id="google-play"  viewBox="0 0 512 512">
<path fill="currentColor" d="M293.6 234.3L72.9 13 353.7 174.2 293.6 234.3zM15.3 0C2.3 6.8-6.4 19.2-6.4 35.3l0 441.3c0 16.1 8.7 28.5 21.7 35.3L271.9 255.9 15.3 0zM440.5 225.6l-58.9-34.1-65.7 64.5 65.7 64.5 60.1-34.1c18-14.3 18-46.5-1.2-60.8zM72.9 499L353.7 337.8 293.6 277.7 72.9 499z"></path>
</symbol>




<symbol  id="logo" viewBox="0 0 200 200">
 <path
    d="M8.38493 25.6638C9.9059 25.6638 11.1389 24.4309 11.1389 22.9099C11.1389 21.3889 9.9059 20.1559 8.38493 20.1559C6.86396 20.1559 5.63098 21.3889 5.63098 22.9099C5.63098 24.4309 6.86396 25.6638 8.38493 25.6638Z"
    stroke="#0AAD0A"
    stroke-width="1.32414"
    stroke-miterlimit="10"
    stroke-linecap="round"
  />
  <path
    d="M7.20044 9.48587H23.8596"
    stroke="#0AAD0A"
    stroke-width="1.32414"
    stroke-miterlimit="10"
    stroke-linecap="round"
  />
  <path
    d="M8.65894 12.8177H23.1315"
    stroke="#0AAD0A"
    stroke-width="1.32414"
    stroke-miterlimit="10"
    stroke-linecap="round"
  />
  <path
    d="M7.90759 20.1549H18.6974C19.8792 20.1549 20.9319 19.4041 21.316 18.2858L25.7629 5.34804C26.1471 4.22981 27.1988 3.4791 28.3816 3.4791H31.6166"
    stroke="#0AAD0A"
    stroke-width="1.32414"
    stroke-miterlimit="10"
    stroke-linecap="round"
  />
  <path
    d="M8.38504 23.3075C8.60471 23.3075 8.78278 23.1294 8.78278 22.9098C8.78278 22.6901 8.60471 22.5121 8.38504 22.5121C8.16538 22.5121 7.9873 22.6901 7.9873 22.9098C7.9873 23.1294 8.16538 23.3075 8.38504 23.3075Z"
    stroke="#0AAD0A"
    stroke-width="1.10345"
    stroke-miterlimit="10"
    stroke-linecap="round"
  />
  <path
    d="M18.3965 25.6638C19.9175 25.6638 21.1504 24.4309 21.1504 22.9099C21.1504 21.3889 19.9175 20.1559 18.3965 20.1559C16.8755 20.1559 15.6426 21.3889 15.6426 22.9099C15.6426 24.4309 16.8755 25.6638 18.3965 25.6638Z"
    stroke="#0AAD0A"
    stroke-width="1.32414"
    stroke-miterlimit="10"
    stroke-linecap="round"
  />
  <path
    d="M18.3966 23.3075C18.6162 23.3075 18.7944 23.1294 18.7944 22.9097C18.7944 22.6901 18.6162 22.512 18.3966 22.512C18.177 22.512 17.9989 22.6901 17.9989 22.9097C17.9989 23.1294 18.177 23.3075 18.3966 23.3075Z"
    stroke="#0AAD0A"
    stroke-width="1.10345"
    stroke-miterlimit="10"
    stroke-linecap="round"
  />
  <path
    d="M21.8703 16.673H7.37794C6.89275 16.673 6.46691 16.3366 6.33363 15.8471L3.87538 6.84261C3.75251 6.3936 4.07424 5.94568 4.51987 5.94568H23.0989"
    stroke="#0AAD0A"
    stroke-width="1.32414"
    stroke-miterlimit="10"
    stroke-linecap="round"
  />
  <path
    d="M1.03162 27.3827C1.03162 27.3827 11.6226 23.7989 25.915 27.3827"
    stroke="#0AAD0A"
    stroke-width="1.32414"
    stroke-miterlimit="10"
    stroke-linecap="round"
  />
  <path
    d="M37.7046 25.8064V6.5462H50.4569V9.90357H41.7766V14.4929H49.6105V17.8503H41.7766V25.8064H37.7046Z"
    fill="#21313C"
  />
  <path
    d="M52.0934 25.8065V11.3613H55.9774V13.8816H56.1279C56.3913 12.9851 56.8333 12.3079 57.454 11.8503C58.0747 11.3863 58.7894 11.1544 59.5982 11.1544C59.7987 11.1544 60.0151 11.1669 60.247 11.192C60.479 11.217 60.6828 11.2515 60.8583 11.2954V14.8503C60.6703 14.7939 60.41 14.7438 60.0778 14.6998C59.7455 14.6559 59.4414 14.634 59.1655 14.634C58.5762 14.634 58.0496 14.7625 57.5856 15.0196C57.128 15.2704 56.7643 15.6215 56.4947 16.0729C56.2314 16.5243 56.0997 17.0447 56.0997 17.634V25.8065H52.0934Z"
    fill="#21313C"
  />
  <path
    d="M68.0458 26.0886C66.5599 26.0886 65.2809 25.7876 64.2088 25.1858C63.143 24.5775 62.3217 23.7186 61.7448 22.6089C61.1681 21.4929 60.8797 20.1732 60.8797 18.6497C60.8797 17.1638 61.1681 15.8597 61.7448 14.7374C62.3217 13.6152 63.1336 12.7405 64.1807 12.1136C65.2339 11.4867 66.469 11.1732 67.8859 11.1732C68.8389 11.1732 69.726 11.3268 70.5474 11.634C71.375 11.935 72.096 12.3895 72.7104 12.9976C73.3311 13.6058 73.8139 14.3707 74.1587 15.2923C74.5035 16.2077 74.6759 17.2798 74.6759 18.5086V19.6089H62.4785V17.1262H70.9048C70.9048 16.5494 70.7794 16.0384 70.5285 15.5932C70.2778 15.1481 69.9298 14.8001 69.4847 14.5494C69.0458 14.2923 68.5348 14.1637 67.9518 14.1637C67.3436 14.1637 66.8045 14.3048 66.3343 14.5869C65.8703 14.8629 65.5066 15.2358 65.2433 15.7061C64.98 16.17 64.8452 16.6873 64.8389 17.2578V19.6183C64.8389 20.333 64.9705 20.9506 65.2339 21.471C65.5035 21.9913 65.8829 22.3926 66.3718 22.6748C66.8609 22.9569 67.4408 23.0979 68.1116 23.0979C68.5568 23.0979 68.9643 23.0352 69.3342 22.9098C69.7042 22.7844 70.0208 22.5963 70.2841 22.3456C70.5474 22.0948 70.748 21.7876 70.8859 21.424L74.5913 21.6684C74.4032 22.5588 74.0176 23.3361 73.4345 24.0007C72.8577 24.6591 72.1117 25.1732 71.1963 25.5431C70.2872 25.9067 69.2371 26.0886 68.0458 26.0886Z"
    fill="#21313C"
  />
  <path
    d="M88.5147 15.4804L84.847 15.7061C84.7842 15.3926 84.6495 15.1105 84.4425 14.8597C84.2357 14.6026 83.963 14.3989 83.6244 14.2484C83.2921 14.0917 82.894 14.0133 82.4301 14.0133C81.8094 14.0133 81.2858 14.1449 80.8595 14.4083C80.4332 14.6653 80.22 15.0102 80.22 15.4428C80.22 15.7876 80.3579 16.0792 80.6338 16.3174C80.9096 16.5557 81.383 16.7468 82.0539 16.891L84.6683 17.4177C86.0727 17.7061 87.1197 18.17 87.8094 18.8095C88.499 19.4491 88.8438 20.2891 88.8438 21.33C88.8438 22.2766 88.5649 23.1073 88.0068 23.822C87.4551 24.5368 86.6965 25.0948 85.731 25.496C84.7717 25.891 83.6652 26.0886 82.4113 26.0886C80.499 26.0886 78.9755 25.6904 77.8406 24.8941C76.7122 24.0917 76.0507 23.0008 75.8563 21.6215L79.7968 21.4145C79.9159 21.9976 80.2043 22.4427 80.662 22.7499C81.1197 23.0509 81.7059 23.2013 82.4207 23.2013C83.1228 23.2013 83.687 23.0666 84.1135 22.797C84.546 22.5211 84.7654 22.1669 84.7717 21.7343C84.7654 21.3706 84.6118 21.0728 84.3109 20.8409C84.0099 20.6026 83.546 20.4208 82.919 20.2954L80.4175 19.797C79.0069 19.5148 77.9567 19.0259 77.267 18.3299C76.5837 17.634 76.242 16.7468 76.242 15.6684C76.242 14.7405 76.4927 13.9412 76.9943 13.2704C77.5022 12.5995 78.2137 12.0823 79.1291 11.7186C80.0507 11.3549 81.1291 11.1732 82.3642 11.1732C84.1886 11.1732 85.6244 11.5587 86.6714 12.3299C87.7247 13.1011 88.3391 14.1512 88.5147 15.4804Z"
    fill="#21313C"
  />
  <path
    d="M94.5783 17.4553V25.8064H90.5721V6.5462H94.4654V13.9099H94.6347C94.9607 13.0571 95.4874 12.3895 96.2147 11.9067C96.9419 11.4177 97.8541 11.1732 98.9513 11.1732C99.9545 11.1732 100.829 11.3926 101.575 11.8314C102.328 12.264 102.911 12.8879 103.324 13.7029C103.744 14.5117 103.951 15.4804 103.945 16.6089V25.8064H99.9388V17.3237C99.9451 16.4333 99.7194 15.7406 99.2617 15.2453C98.8103 14.7499 98.177 14.5023 97.3621 14.5023C96.8165 14.5023 96.3338 14.6183 95.9137 14.8503C95.5 15.0822 95.1739 15.4208 94.9356 15.8659C94.7037 16.3048 94.5846 16.8346 94.5783 17.4553Z"
    fill="#21313C"
  />
  <path
    d="M123.373 13.2892H119.253C119.178 12.7562 119.025 12.2828 118.793 11.8691C118.56 11.4491 118.263 11.0917 117.899 10.797C117.535 10.5023 117.115 10.2766 116.638 10.1199C116.169 9.96315 115.658 9.88478 115.105 9.88478C114.109 9.88478 113.241 10.1324 112.501 10.6277C111.761 11.1167 111.187 11.8314 110.78 12.7719C110.373 13.7061 110.168 14.8409 110.168 16.1763C110.168 17.5493 110.373 18.703 110.78 19.6372C111.194 20.5713 111.77 21.2766 112.51 21.7531C113.25 22.2296 114.106 22.4678 115.078 22.4678C115.624 22.4678 116.127 22.3958 116.592 22.2516C117.062 22.1074 117.479 21.8973 117.843 21.6215C118.206 21.3394 118.507 20.9976 118.745 20.5963C118.99 20.1951 119.159 19.7374 119.253 19.2233L123.373 19.2421C123.265 20.1262 122.999 20.9788 122.573 21.8002C122.153 22.6152 121.586 23.3456 120.871 23.9913C120.162 24.6308 119.316 25.1387 118.331 25.5148C117.354 25.8848 116.247 26.0697 115.012 26.0697C113.294 26.0697 111.758 25.681 110.404 24.9035C109.055 24.1262 107.99 23.0008 107.207 21.5274C106.429 20.0541 106.04 18.2704 106.04 16.1763C106.04 14.076 106.436 12.2891 107.225 10.8158C108.015 9.34246 109.087 8.2202 110.442 7.44904C111.796 6.67162 113.319 6.2829 115.012 6.2829C116.127 6.2829 117.163 6.43964 118.116 6.75311C119.074 7.0666 119.924 7.52427 120.664 8.12616C121.403 8.72176 122.006 9.45218 122.47 10.3174C122.94 11.1826 123.241 12.1732 123.373 13.2892Z"
    fill="#21313C"
  />
  <path
    d="M129.542 26.0792C128.62 26.0792 127.799 25.9193 127.078 25.5995C126.357 25.2735 125.786 24.7939 125.366 24.1606C124.952 23.5211 124.746 22.7248 124.746 21.7719C124.746 20.9694 124.893 20.2954 125.188 19.75C125.483 19.2045 125.883 18.7656 126.391 18.4333C126.899 18.1011 127.476 17.8503 128.122 17.681C128.774 17.5117 129.457 17.3926 130.172 17.3237C131.013 17.2358 131.69 17.1544 132.204 17.0791C132.718 16.9976 133.09 16.8784 133.323 16.7217C133.554 16.5651 133.671 16.333 133.671 16.0258V15.9694C133.671 15.3738 133.483 14.913 133.106 14.5869C132.736 14.2609 132.21 14.098 131.527 14.098C130.805 14.098 130.231 14.2579 129.805 14.5775C129.379 14.891 129.097 15.286 128.958 15.7625L125.254 15.4616C125.441 14.5838 125.811 13.8252 126.363 13.1857C126.915 12.54 127.627 12.0446 128.498 11.6998C129.375 11.3487 130.391 11.1732 131.545 11.1732C132.347 11.1732 133.115 11.2672 133.849 11.4553C134.589 11.6433 135.244 11.935 135.815 12.3299C136.392 12.7248 136.846 13.2327 137.178 13.8534C137.511 14.4678 137.677 15.2045 137.677 16.0635V25.8064H133.877V23.8032H133.765C133.532 24.2547 133.223 24.6528 132.833 24.9976C132.444 25.3361 131.978 25.6027 131.432 25.797C130.887 25.9851 130.257 26.0792 129.542 26.0792ZM130.689 23.3143C131.279 23.3143 131.799 23.1982 132.25 22.9663C132.701 22.728 133.056 22.4083 133.313 22.007C133.57 21.6058 133.698 21.1513 133.698 20.6434V19.1105C133.574 19.1919 133.401 19.2672 133.181 19.3361C132.969 19.3989 132.727 19.4585 132.458 19.5148C132.187 19.565 131.918 19.6121 131.648 19.6559C131.379 19.6935 131.134 19.728 130.914 19.7594C130.445 19.8283 130.034 19.9381 129.683 20.0886C129.332 20.239 129.06 20.4427 128.864 20.6998C128.67 20.9506 128.573 21.2641 128.573 21.6403C128.573 22.1857 128.77 22.6026 129.166 22.891C129.567 23.1732 130.075 23.3143 130.689 23.3143Z"
    fill="#21313C"
  />
  <path
    d="M139.99 25.8065V11.3613H143.874V13.8816H144.025C144.288 12.9851 144.73 12.3079 145.351 11.8503C145.972 11.3863 146.686 11.1544 147.495 11.1544C147.696 11.1544 147.912 11.1669 148.144 11.192C148.376 11.217 148.58 11.2515 148.755 11.2954V14.8503C148.567 14.7939 148.307 14.7438 147.975 14.6998C147.642 14.6559 147.339 14.634 147.062 14.634C146.473 14.634 145.946 14.7625 145.483 15.0196C145.024 15.2704 144.661 15.6215 144.392 16.0729C144.128 16.5243 143.996 17.0447 143.996 17.634V25.8065H139.99Z"
    fill="#21313C"
  />
  <path
    d="M158.44 11.3613V14.3707H149.741V11.3613H158.44ZM151.716 7.90045H155.722V21.3675C155.722 21.7374 155.779 22.0258 155.891 22.2328C156.004 22.4334 156.16 22.5745 156.362 22.6559C156.568 22.7375 156.807 22.7782 157.076 22.7782C157.264 22.7782 157.452 22.7625 157.641 22.7312C157.829 22.6936 157.972 22.6653 158.073 22.6465L158.703 25.6278C158.503 25.6904 158.22 25.7625 157.856 25.844C157.493 25.9318 157.051 25.985 156.531 26.0039C155.565 26.0415 154.718 25.913 153.992 25.6183C153.27 25.3237 152.71 24.866 152.308 24.2453C151.907 23.6246 151.709 22.8409 151.716 21.8942V7.90045Z"
    fill="#21313C"
  />
</symbol>



</svg>
